<mxfile host="app.diagrams.net" modified="2023-10-15T03:42:37.868Z" agent="Mozilla/5.0 (Windows NT 10.0; Win64; x64) AppleWebKit/537.36 (KHTML, like Gecko) Chrome/118.0.0.0 Safari/537.36" etag="Tp2-t8dcfN-x_B71Md0t" version="22.0.4" type="github">
  <diagram name="第 1 页" id="MYnPqrq0IcUWPamjDBn3">
    <mxGraphModel dx="1562" dy="3168" grid="1" gridSize="10" guides="1" tooltips="1" connect="1" arrows="1" fold="1" page="1" pageScale="1" pageWidth="827" pageHeight="1169" math="0" shadow="0">
      <root>
        <mxCell id="0" />
        <mxCell id="1" parent="0" />
        <mxCell id="EYt9l6OYSjj466IM3DUd-1" style="edgeStyle=orthogonalEdgeStyle;rounded=0;orthogonalLoop=3;jettySize=auto;html=1;entryX=0.5;entryY=0;entryDx=0;entryDy=0;fontColor=#212121;strokeColor=#212121;strokeWidth=2;" edge="1" parent="1" source="EYt9l6OYSjj466IM3DUd-3" target="EYt9l6OYSjj466IM3DUd-9">
          <mxGeometry relative="1" as="geometry" />
        </mxCell>
        <mxCell id="EYt9l6OYSjj466IM3DUd-2" value="从配置文件读取配置" style="edgeLabel;html=1;align=center;verticalAlign=middle;resizable=0;points=[];fontSize=14;fontFamily=Microsoft YaHei;fontColor=#212121;" vertex="1" connectable="0" parent="EYt9l6OYSjj466IM3DUd-1">
          <mxGeometry x="-0.2933" relative="1" as="geometry">
            <mxPoint as="offset" />
          </mxGeometry>
        </mxCell>
        <mxCell id="EYt9l6OYSjj466IM3DUd-3" value="index.php" style="rounded=1;whiteSpace=wrap;html=1;fontFamily=Microsoft YaHei;fontSize=14;fontColor=#212121;strokeWidth=2;" vertex="1" parent="1">
          <mxGeometry x="210" y="120" width="120" height="45" as="geometry" />
        </mxCell>
        <mxCell id="EYt9l6OYSjj466IM3DUd-4" style="edgeStyle=orthogonalEdgeStyle;rounded=0;orthogonalLoop=3;jettySize=auto;html=1;entryX=0.5;entryY=0;entryDx=0;entryDy=0;fontColor=#212121;strokeColor=#212121;strokeWidth=2;" edge="1" parent="1" source="EYt9l6OYSjj466IM3DUd-6" target="EYt9l6OYSjj466IM3DUd-10">
          <mxGeometry relative="1" as="geometry" />
        </mxCell>
        <mxCell id="EYt9l6OYSjj466IM3DUd-5" value="调用run函数处理请求" style="edgeLabel;html=1;align=center;verticalAlign=middle;resizable=0;points=[];fontSize=14;fontFamily=Microsoft YaHei;fontColor=#212121;" vertex="1" connectable="0" parent="EYt9l6OYSjj466IM3DUd-4">
          <mxGeometry x="-0.2993" relative="1" as="geometry">
            <mxPoint as="offset" />
          </mxGeometry>
        </mxCell>
        <mxCell id="EYt9l6OYSjj466IM3DUd-6" value="&lt;span style=&quot;color: rgb(51, 51, 51); font-family: &amp;quot;Open Sans&amp;quot;, &amp;quot;Clear Sans&amp;quot;, &amp;quot;Helvetica Neue&amp;quot;, Helvetica, Arial, sans-serif; font-size: 16px; orphans: 4; text-align: left; background-color: rgb(255, 255, 255);&quot;&gt;new yii\web\Application($config)&lt;/span&gt;" style="rounded=1;whiteSpace=wrap;html=1;fontFamily=Microsoft YaHei;fontSize=14;fontColor=#212121;strokeWidth=2;" vertex="1" parent="1">
          <mxGeometry x="150" y="360" width="240" height="60" as="geometry" />
        </mxCell>
        <mxCell id="EYt9l6OYSjj466IM3DUd-7" style="edgeStyle=orthogonalEdgeStyle;rounded=0;orthogonalLoop=3;jettySize=auto;html=1;entryX=0.5;entryY=0;entryDx=0;entryDy=0;fontColor=#212121;strokeColor=#212121;strokeWidth=2;" edge="1" parent="1" source="EYt9l6OYSjj466IM3DUd-9" target="EYt9l6OYSjj466IM3DUd-6">
          <mxGeometry relative="1" as="geometry" />
        </mxCell>
        <mxCell id="EYt9l6OYSjj466IM3DUd-8" value="使用读取的配置，生成Application对象" style="edgeLabel;html=1;align=center;verticalAlign=middle;resizable=0;points=[];fontSize=14;fontFamily=Microsoft YaHei;fontColor=#212121;" vertex="1" connectable="0" parent="EYt9l6OYSjj466IM3DUd-7">
          <mxGeometry x="-0.3389" y="1" relative="1" as="geometry">
            <mxPoint as="offset" />
          </mxGeometry>
        </mxCell>
        <mxCell id="EYt9l6OYSjj466IM3DUd-9" value="$config" style="rounded=1;whiteSpace=wrap;html=1;fontFamily=Microsoft YaHei;fontSize=14;fontColor=#212121;strokeWidth=2;" vertex="1" parent="1">
          <mxGeometry x="210" y="240" width="120" height="60" as="geometry" />
        </mxCell>
        <mxCell id="EYt9l6OYSjj466IM3DUd-10" value="run()" style="rounded=1;whiteSpace=wrap;html=1;fontFamily=Microsoft YaHei;fontSize=14;fontColor=#212121;strokeWidth=2;" vertex="1" parent="1">
          <mxGeometry x="210" y="495" width="120" height="60" as="geometry" />
        </mxCell>
        <mxCell id="EYt9l6OYSjj466IM3DUd-25" value="Extends" style="endArrow=block;endSize=16;endFill=0;html=1;rounded=0;" edge="1" parent="1" source="EYt9l6OYSjj466IM3DUd-49" target="EYt9l6OYSjj466IM3DUd-45">
          <mxGeometry width="160" relative="1" as="geometry">
            <mxPoint x="470" y="-90" as="sourcePoint" />
            <mxPoint x="470" y="-254" as="targetPoint" />
          </mxGeometry>
        </mxCell>
        <mxCell id="EYt9l6OYSjj466IM3DUd-26" value="Module" style="swimlane;fontStyle=1;align=center;verticalAlign=top;childLayout=stackLayout;horizontal=1;startSize=26;horizontalStack=0;resizeParent=1;resizeParentMax=0;resizeLast=0;collapsible=1;marginBottom=0;whiteSpace=wrap;html=1;" vertex="1" parent="1">
          <mxGeometry x="390" y="-540" width="160" height="86" as="geometry" />
        </mxCell>
        <mxCell id="EYt9l6OYSjj466IM3DUd-27" value="+ field: type" style="text;strokeColor=none;fillColor=none;align=left;verticalAlign=top;spacingLeft=4;spacingRight=4;overflow=hidden;rotatable=0;points=[[0,0.5],[1,0.5]];portConstraint=eastwest;whiteSpace=wrap;html=1;" vertex="1" parent="EYt9l6OYSjj466IM3DUd-26">
          <mxGeometry y="26" width="160" height="26" as="geometry" />
        </mxCell>
        <mxCell id="EYt9l6OYSjj466IM3DUd-28" value="" style="line;strokeWidth=1;fillColor=none;align=left;verticalAlign=middle;spacingTop=-1;spacingLeft=3;spacingRight=3;rotatable=0;labelPosition=right;points=[];portConstraint=eastwest;strokeColor=inherit;" vertex="1" parent="EYt9l6OYSjj466IM3DUd-26">
          <mxGeometry y="52" width="160" height="8" as="geometry" />
        </mxCell>
        <mxCell id="EYt9l6OYSjj466IM3DUd-29" value="+ method(type): type" style="text;strokeColor=none;fillColor=none;align=left;verticalAlign=top;spacingLeft=4;spacingRight=4;overflow=hidden;rotatable=0;points=[[0,0.5],[1,0.5]];portConstraint=eastwest;whiteSpace=wrap;html=1;" vertex="1" parent="EYt9l6OYSjj466IM3DUd-26">
          <mxGeometry y="60" width="160" height="26" as="geometry" />
        </mxCell>
        <mxCell id="EYt9l6OYSjj466IM3DUd-34" value="Extends" style="endArrow=block;endSize=16;endFill=0;html=1;rounded=0;" edge="1" parent="1" source="EYt9l6OYSjj466IM3DUd-45" target="EYt9l6OYSjj466IM3DUd-26">
          <mxGeometry width="160" relative="1" as="geometry">
            <mxPoint x="470" y="-340" as="sourcePoint" />
            <mxPoint x="380" y="-360" as="targetPoint" />
          </mxGeometry>
        </mxCell>
        <mxCell id="EYt9l6OYSjj466IM3DUd-35" value="ServiceLocator" style="swimlane;fontStyle=1;align=center;verticalAlign=top;childLayout=stackLayout;horizontal=1;startSize=26;horizontalStack=0;resizeParent=1;resizeParentMax=0;resizeLast=0;collapsible=1;marginBottom=0;whiteSpace=wrap;html=1;" vertex="1" parent="1">
          <mxGeometry x="390" y="-740" width="160" height="86" as="geometry" />
        </mxCell>
        <mxCell id="EYt9l6OYSjj466IM3DUd-36" value="+ field: type" style="text;strokeColor=none;fillColor=none;align=left;verticalAlign=top;spacingLeft=4;spacingRight=4;overflow=hidden;rotatable=0;points=[[0,0.5],[1,0.5]];portConstraint=eastwest;whiteSpace=wrap;html=1;" vertex="1" parent="EYt9l6OYSjj466IM3DUd-35">
          <mxGeometry y="26" width="160" height="26" as="geometry" />
        </mxCell>
        <mxCell id="EYt9l6OYSjj466IM3DUd-37" value="" style="line;strokeWidth=1;fillColor=none;align=left;verticalAlign=middle;spacingTop=-1;spacingLeft=3;spacingRight=3;rotatable=0;labelPosition=right;points=[];portConstraint=eastwest;strokeColor=inherit;" vertex="1" parent="EYt9l6OYSjj466IM3DUd-35">
          <mxGeometry y="52" width="160" height="8" as="geometry" />
        </mxCell>
        <mxCell id="EYt9l6OYSjj466IM3DUd-38" value="+ method(type): type" style="text;strokeColor=none;fillColor=none;align=left;verticalAlign=top;spacingLeft=4;spacingRight=4;overflow=hidden;rotatable=0;points=[[0,0.5],[1,0.5]];portConstraint=eastwest;whiteSpace=wrap;html=1;" vertex="1" parent="EYt9l6OYSjj466IM3DUd-35">
          <mxGeometry y="60" width="160" height="26" as="geometry" />
        </mxCell>
        <mxCell id="EYt9l6OYSjj466IM3DUd-39" value="Extends" style="endArrow=block;endSize=16;endFill=0;html=1;rounded=0;exitX=0.5;exitY=0;exitDx=0;exitDy=0;" edge="1" parent="1" source="EYt9l6OYSjj466IM3DUd-26" target="EYt9l6OYSjj466IM3DUd-35">
          <mxGeometry width="160" relative="1" as="geometry">
            <mxPoint x="190" y="-480" as="sourcePoint" />
            <mxPoint x="350" y="-480" as="targetPoint" />
          </mxGeometry>
        </mxCell>
        <mxCell id="EYt9l6OYSjj466IM3DUd-40" value="Component" style="swimlane;fontStyle=1;align=center;verticalAlign=top;childLayout=stackLayout;horizontal=1;startSize=26;horizontalStack=0;resizeParent=1;resizeParentMax=0;resizeLast=0;collapsible=1;marginBottom=0;whiteSpace=wrap;html=1;" vertex="1" parent="1">
          <mxGeometry x="390" y="-920" width="160" height="86" as="geometry" />
        </mxCell>
        <mxCell id="EYt9l6OYSjj466IM3DUd-41" value="+ field: type" style="text;strokeColor=none;fillColor=none;align=left;verticalAlign=top;spacingLeft=4;spacingRight=4;overflow=hidden;rotatable=0;points=[[0,0.5],[1,0.5]];portConstraint=eastwest;whiteSpace=wrap;html=1;" vertex="1" parent="EYt9l6OYSjj466IM3DUd-40">
          <mxGeometry y="26" width="160" height="26" as="geometry" />
        </mxCell>
        <mxCell id="EYt9l6OYSjj466IM3DUd-42" value="" style="line;strokeWidth=1;fillColor=none;align=left;verticalAlign=middle;spacingTop=-1;spacingLeft=3;spacingRight=3;rotatable=0;labelPosition=right;points=[];portConstraint=eastwest;strokeColor=inherit;" vertex="1" parent="EYt9l6OYSjj466IM3DUd-40">
          <mxGeometry y="52" width="160" height="8" as="geometry" />
        </mxCell>
        <mxCell id="EYt9l6OYSjj466IM3DUd-43" value="+ method(type): type" style="text;strokeColor=none;fillColor=none;align=left;verticalAlign=top;spacingLeft=4;spacingRight=4;overflow=hidden;rotatable=0;points=[[0,0.5],[1,0.5]];portConstraint=eastwest;whiteSpace=wrap;html=1;" vertex="1" parent="EYt9l6OYSjj466IM3DUd-40">
          <mxGeometry y="60" width="160" height="26" as="geometry" />
        </mxCell>
        <mxCell id="EYt9l6OYSjj466IM3DUd-44" value="Extends" style="endArrow=block;endSize=16;endFill=0;html=1;rounded=0;" edge="1" parent="1" source="EYt9l6OYSjj466IM3DUd-35" target="EYt9l6OYSjj466IM3DUd-40">
          <mxGeometry width="160" relative="1" as="geometry">
            <mxPoint x="230" y="-750" as="sourcePoint" />
            <mxPoint x="390" y="-750" as="targetPoint" />
          </mxGeometry>
        </mxCell>
        <mxCell id="EYt9l6OYSjj466IM3DUd-45" value="\yii\base\Application" style="swimlane;fontStyle=1;align=center;verticalAlign=top;childLayout=stackLayout;horizontal=1;startSize=26;horizontalStack=0;resizeParent=1;resizeParentMax=0;resizeLast=0;collapsible=1;marginBottom=0;whiteSpace=wrap;html=1;" vertex="1" parent="1">
          <mxGeometry x="390" y="-370" width="160" height="86" as="geometry" />
        </mxCell>
        <mxCell id="EYt9l6OYSjj466IM3DUd-46" value="+ field: type" style="text;strokeColor=none;fillColor=none;align=left;verticalAlign=top;spacingLeft=4;spacingRight=4;overflow=hidden;rotatable=0;points=[[0,0.5],[1,0.5]];portConstraint=eastwest;whiteSpace=wrap;html=1;" vertex="1" parent="EYt9l6OYSjj466IM3DUd-45">
          <mxGeometry y="26" width="160" height="26" as="geometry" />
        </mxCell>
        <mxCell id="EYt9l6OYSjj466IM3DUd-47" value="" style="line;strokeWidth=1;fillColor=none;align=left;verticalAlign=middle;spacingTop=-1;spacingLeft=3;spacingRight=3;rotatable=0;labelPosition=right;points=[];portConstraint=eastwest;strokeColor=inherit;" vertex="1" parent="EYt9l6OYSjj466IM3DUd-45">
          <mxGeometry y="52" width="160" height="8" as="geometry" />
        </mxCell>
        <mxCell id="EYt9l6OYSjj466IM3DUd-48" value="+ construct($config)" style="text;strokeColor=none;fillColor=none;align=left;verticalAlign=top;spacingLeft=4;spacingRight=4;overflow=hidden;rotatable=0;points=[[0,0.5],[1,0.5]];portConstraint=eastwest;whiteSpace=wrap;html=1;" vertex="1" parent="EYt9l6OYSjj466IM3DUd-45">
          <mxGeometry y="60" width="160" height="26" as="geometry" />
        </mxCell>
        <mxCell id="EYt9l6OYSjj466IM3DUd-49" value="yii\web\Application" style="swimlane;fontStyle=1;align=center;verticalAlign=top;childLayout=stackLayout;horizontal=1;startSize=26;horizontalStack=0;resizeParent=1;resizeParentMax=0;resizeLast=0;collapsible=1;marginBottom=0;whiteSpace=wrap;html=1;" vertex="1" parent="1">
          <mxGeometry x="390" y="-210" width="160" height="86" as="geometry" />
        </mxCell>
        <mxCell id="EYt9l6OYSjj466IM3DUd-50" value="+ field: type" style="text;strokeColor=none;fillColor=none;align=left;verticalAlign=top;spacingLeft=4;spacingRight=4;overflow=hidden;rotatable=0;points=[[0,0.5],[1,0.5]];portConstraint=eastwest;whiteSpace=wrap;html=1;" vertex="1" parent="EYt9l6OYSjj466IM3DUd-49">
          <mxGeometry y="26" width="160" height="26" as="geometry" />
        </mxCell>
        <mxCell id="EYt9l6OYSjj466IM3DUd-51" value="" style="line;strokeWidth=1;fillColor=none;align=left;verticalAlign=middle;spacingTop=-1;spacingLeft=3;spacingRight=3;rotatable=0;labelPosition=right;points=[];portConstraint=eastwest;strokeColor=inherit;" vertex="1" parent="EYt9l6OYSjj466IM3DUd-49">
          <mxGeometry y="52" width="160" height="8" as="geometry" />
        </mxCell>
        <mxCell id="EYt9l6OYSjj466IM3DUd-52" value="+ method(type): type" style="text;strokeColor=none;fillColor=none;align=left;verticalAlign=top;spacingLeft=4;spacingRight=4;overflow=hidden;rotatable=0;points=[[0,0.5],[1,0.5]];portConstraint=eastwest;whiteSpace=wrap;html=1;" vertex="1" parent="EYt9l6OYSjj466IM3DUd-49">
          <mxGeometry y="60" width="160" height="26" as="geometry" />
        </mxCell>
        <mxCell id="EYt9l6OYSjj466IM3DUd-53" value="BaseObject" style="swimlane;fontStyle=1;align=center;verticalAlign=top;childLayout=stackLayout;horizontal=1;startSize=26;horizontalStack=0;resizeParent=1;resizeParentMax=0;resizeLast=0;collapsible=1;marginBottom=0;whiteSpace=wrap;html=1;" vertex="1" parent="1">
          <mxGeometry x="390" y="-1090" width="160" height="86" as="geometry" />
        </mxCell>
        <mxCell id="EYt9l6OYSjj466IM3DUd-54" value="+ field: type" style="text;strokeColor=none;fillColor=none;align=left;verticalAlign=top;spacingLeft=4;spacingRight=4;overflow=hidden;rotatable=0;points=[[0,0.5],[1,0.5]];portConstraint=eastwest;whiteSpace=wrap;html=1;" vertex="1" parent="EYt9l6OYSjj466IM3DUd-53">
          <mxGeometry y="26" width="160" height="26" as="geometry" />
        </mxCell>
        <mxCell id="EYt9l6OYSjj466IM3DUd-55" value="" style="line;strokeWidth=1;fillColor=none;align=left;verticalAlign=middle;spacingTop=-1;spacingLeft=3;spacingRight=3;rotatable=0;labelPosition=right;points=[];portConstraint=eastwest;strokeColor=inherit;" vertex="1" parent="EYt9l6OYSjj466IM3DUd-53">
          <mxGeometry y="52" width="160" height="8" as="geometry" />
        </mxCell>
        <mxCell id="EYt9l6OYSjj466IM3DUd-56" value="+ method(type): type" style="text;strokeColor=none;fillColor=none;align=left;verticalAlign=top;spacingLeft=4;spacingRight=4;overflow=hidden;rotatable=0;points=[[0,0.5],[1,0.5]];portConstraint=eastwest;whiteSpace=wrap;html=1;" vertex="1" parent="EYt9l6OYSjj466IM3DUd-53">
          <mxGeometry y="60" width="160" height="26" as="geometry" />
        </mxCell>
        <mxCell id="EYt9l6OYSjj466IM3DUd-57" value="Extends" style="endArrow=block;endSize=16;endFill=0;html=1;rounded=0;" edge="1" parent="1" source="EYt9l6OYSjj466IM3DUd-40" target="EYt9l6OYSjj466IM3DUd-53">
          <mxGeometry width="160" relative="1" as="geometry">
            <mxPoint x="130" y="-880" as="sourcePoint" />
            <mxPoint x="290" y="-880" as="targetPoint" />
          </mxGeometry>
        </mxCell>
        <mxCell id="EYt9l6OYSjj466IM3DUd-58" value="«interface»&lt;br&gt;&lt;b&gt;Configurable&lt;/b&gt;" style="html=1;whiteSpace=wrap;" vertex="1" parent="1">
          <mxGeometry x="415" y="-1200" width="110" height="50" as="geometry" />
        </mxCell>
        <mxCell id="EYt9l6OYSjj466IM3DUd-59" value="" style="endArrow=block;dashed=1;endFill=0;endSize=12;html=1;rounded=0;" edge="1" parent="1" source="EYt9l6OYSjj466IM3DUd-53" target="EYt9l6OYSjj466IM3DUd-58">
          <mxGeometry width="160" relative="1" as="geometry">
            <mxPoint x="200" y="-1130" as="sourcePoint" />
            <mxPoint x="360" y="-1130" as="targetPoint" />
          </mxGeometry>
        </mxCell>
      </root>
    </mxGraphModel>
  </diagram>
</mxfile>
